<svg width="24" height="25" viewBox="0 0 24 25" fill="none" xmlns="http://www.w3.org/2000/svg">
<path d="M7.27344 3.72264L7.16016 2.98124L7.27344 3.72264ZM13.1359 3.72264L13.2491 2.98125L13.1359 3.72264ZM12.8338 21.2684L12.7027 20.53L12.8338 21.2684ZM7.57549 21.2684L7.70658 20.53L7.70658 20.53L7.57549 21.2684ZM3.54889 17.801L2.83225 18.0222L3.54889 17.801ZM2.6595 8.10631L3.40443 8.19338L2.6595 8.10631ZM17.8223 8.72692L18.5673 8.63986L17.8223 8.72692ZM17.0446 17.2041L16.328 16.9829V16.9829L17.0446 17.2041ZM2.69573 7.79633L1.9508 7.70926L2.69573 7.79633ZM6.50788 3.83961L6.62115 4.58101L6.50788 3.83961ZM7.44142 21.2446L7.31032 21.9831L7.31033 21.9831L7.44142 21.2446ZM16.9007 17.6706L17.6173 17.8918V17.8918L16.9007 17.6706ZM17.739 8.01366L16.994 8.10073L17.739 8.01366ZM13.6857 3.80665L13.5724 4.54805L13.6857 3.80665ZM18.2748 16.3057V15.5557V16.3057ZM21.4142 12.2908L20.6809 12.448L20.6809 12.448L21.4142 12.2908ZM21.4252 12.3424L22.1586 12.1852V12.1852L21.4252 12.3424ZM21.4252 13.7535L20.6919 13.5963L21.4252 13.7535ZM18.3274 9.79022V9.04022V9.79022ZM17.2998 16.3057L16.5739 16.1172L17.2998 16.3057ZM17.9188 9.79022L17.1704 9.83863L17.9188 9.79022ZM16.994 8.10073L17.0774 8.81399L18.5673 8.63986L18.4839 7.9266L16.994 8.10073ZM16.328 16.9829L16.184 17.4494L17.6173 17.8918L17.7613 17.4253L16.328 16.9829ZM3.40443 8.19338L3.44066 7.8834L1.9508 7.70926L1.91457 8.01925L3.40443 8.19338ZM7.70658 20.53L7.57251 20.5062L7.31033 21.9831L7.44439 22.0069L7.70658 20.53ZM6.62115 4.58101L7.38671 4.46404L7.16016 2.98124L6.3946 3.09821L6.62115 4.58101ZM13.0226 4.46404L13.5724 4.54805L13.799 3.06525L13.2491 2.98125L13.0226 4.46404ZM7.38671 4.46404C9.25456 4.17865 11.1547 4.17865 13.0226 4.46404L13.2491 2.98125C11.2311 2.67292 9.17817 2.67292 7.16016 2.98124L7.38671 4.46404ZM12.7027 20.53C11.0502 20.8233 9.35911 20.8233 7.70658 20.53L7.44439 22.0069C9.27036 22.331 11.1389 22.331 12.9649 22.0069L12.7027 20.53ZM4.26554 17.5798C3.32903 14.5455 3.0357 11.3482 3.40443 8.19338L1.91457 8.01925C1.52163 11.3812 1.83421 14.7884 2.83225 18.0222L4.26554 17.5798ZM3.44066 7.8834C3.63875 6.18851 4.94189 4.83758 6.62115 4.58101L6.3946 3.09821C4.04519 3.45717 2.22702 5.34591 1.9508 7.70926L3.44066 7.8834ZM2.83225 18.0222C3.46678 20.0781 5.1945 21.6075 7.31032 21.9831L7.57252 20.5062C6.01169 20.2291 4.73482 19.1003 4.26554 17.5798L2.83225 18.0222ZM16.184 17.4494C15.69 19.05 14.3459 20.2383 12.7027 20.53L12.9649 22.0069C15.1631 21.6166 16.9581 20.0278 17.6173 17.8918L16.184 17.4494ZM18.4839 7.9266C18.1927 5.43489 16.2758 3.44369 13.799 3.06525L13.5724 4.54805C15.3791 4.82409 16.781 6.27749 16.994 8.10073L18.4839 7.9266ZM18.2748 15.5557H17.7859V17.0557H18.2748V15.5557ZM20.6809 12.448L20.6919 12.4995L22.1586 12.1852L22.1476 12.1337L20.6809 12.448ZM20.6919 12.4995C20.7694 12.861 20.7694 13.2349 20.6919 13.5963L22.1586 13.9107C22.2805 13.342 22.2805 12.7539 22.1586 12.1852L20.6919 12.4995ZM18.2748 17.0557C20.1485 17.0557 21.7657 15.744 22.1586 13.9107L20.6919 13.5963C20.4467 14.7407 19.4386 15.5557 18.2748 15.5557V17.0557ZM18.3274 10.5402C19.4605 10.5402 20.4421 11.3337 20.6809 12.448L22.1476 12.1337C21.7611 10.3304 20.1704 9.04022 18.3274 9.04022L18.3274 10.5402ZM16.5739 16.1172C16.4985 16.4073 16.4166 16.6959 16.328 16.9829L17.7613 17.4253C17.8565 17.1166 17.9447 16.8062 18.0257 16.4942L16.5739 16.1172ZM17.7859 15.5557H17.2998V17.0557H17.7859V15.5557ZM17.0774 8.81399C17.1173 9.15508 17.1483 9.49674 17.1704 9.83863L18.6672 9.74181C18.6435 9.37413 18.6101 9.00669 18.5673 8.63986L17.0774 8.81399ZM17.1704 9.83863C17.3069 11.9497 17.1056 14.0694 16.5739 16.1172L18.0257 16.4942C18.5976 14.2918 18.8141 12.0122 18.6672 9.74181L17.1704 9.83863ZM18.3274 9.04022H17.9188V10.5402H18.3274V9.04022Z" fill="#FA4A0C"/>
<path d="M6 12V12.7639C6 14.2344 6.34237 15.6847 7 17" stroke="#FA4A0C" stroke-width="1.5" stroke-linecap="round"/>
</svg>
