<svg width="21" height="21" viewBox="0 0 21 21" fill="none" xmlns="http://www.w3.org/2000/svg">
<path d="M2.83325 5.86049C2.46506 5.86049 2.16659 6.15896 2.16659 6.52715C2.16659 6.89534 2.46506 7.19382 2.83325 7.19382V5.86049ZM17.8333 7.19382C18.2014 7.19382 18.4999 6.89534 18.4999 6.52715C18.4999 6.15896 18.2014 5.86049 17.8333 5.86049V7.19382ZM4.49992 6.52715V5.86049H3.83325V6.52715H4.49992ZM16.1666 6.52715H16.8332V5.86049H16.1666V6.52715ZM15.6181 14.6919L16.2586 14.8768L15.6181 14.6919ZM11.7699 18.0461L11.881 18.7035L11.7699 18.0461ZM8.89659 18.0461L9.00768 17.3888L9.00767 17.3888L8.89659 18.0461ZM8.76514 18.0239L8.65406 18.6812H8.65406L8.76514 18.0239ZM5.04838 14.6919L4.40786 14.8768L5.04838 14.6919ZM11.9014 18.0239L11.7903 17.3665L11.9014 18.0239ZM6.8687 5.24115L7.47385 5.52086L6.8687 5.24115ZM7.6816 4.15092L7.23669 3.65444V3.65444L7.6816 4.15092ZM8.89819 3.42246L9.13018 4.04746L8.89819 3.42246ZM11.7683 3.42246L12.0003 2.79746V2.79746L11.7683 3.42246ZM13.7978 5.24115L14.4029 4.96143L14.4029 4.96143L13.7978 5.24115ZM2.83325 7.19382H17.8333V5.86049H2.83325V7.19382ZM11.7903 17.3665L11.6588 17.3888L11.881 18.7035L12.0124 18.6812L11.7903 17.3665ZM9.00767 17.3888L8.87622 17.3665L8.65406 18.6812L8.78551 18.7035L9.00767 17.3888ZM15.4999 6.52715V10.8132H16.8332V6.52715H15.4999ZM5.16659 10.8132V6.52715H3.83325V10.8132H5.16659ZM15.4999 10.8132C15.4999 12.0632 15.324 13.3069 14.9776 14.507L16.2586 14.8768C16.6398 13.5564 16.8332 12.1882 16.8332 10.8132H15.4999ZM11.6588 17.3888C10.7812 17.5371 9.88527 17.5371 9.00768 17.3888L8.78551 18.7035C9.81017 18.8766 10.8563 18.8766 11.881 18.7035L11.6588 17.3888ZM8.87622 17.3665C7.36049 17.1104 6.12019 16.0011 5.68889 14.507L4.40786 14.8768C4.97993 16.8585 6.62842 18.3389 8.65406 18.6812L8.87622 17.3665ZM5.68889 14.507C5.34245 13.3069 5.16659 12.0632 5.16659 10.8132H3.83325C3.83325 12.1882 4.0267 13.5564 4.40786 14.8768L5.68889 14.507ZM12.0124 18.6812C14.0381 18.3389 15.6865 16.8585 16.2586 14.8768L14.9776 14.507C14.5463 16.0011 13.306 17.1104 11.7903 17.3665L12.0124 18.6812ZM7.24992 6.52715C7.24992 6.1842 7.32518 5.8425 7.47385 5.52086L6.26356 4.96143C6.03532 5.45522 5.91659 5.98749 5.91659 6.52715H7.24992ZM7.47385 5.52086C7.62265 5.19894 7.84308 4.9014 8.12652 4.64741L7.23669 3.65444C6.82368 4.02454 6.49167 4.46792 6.26356 4.96143L7.47385 5.52086ZM8.12652 4.64741C8.41009 4.39328 8.7506 4.18836 9.13018 4.04746L8.6662 2.79746C8.13584 2.99432 7.64955 3.28446 7.23669 3.65444L8.12652 4.64741ZM9.13018 4.04746C9.5098 3.90655 9.9188 3.83332 10.3333 3.83332V2.49999C9.76279 2.49999 9.19652 2.60061 8.6662 2.79746L9.13018 4.04746ZM10.3333 3.83332C10.7477 3.83332 11.1567 3.90655 11.5363 4.04746L12.0003 2.79746C11.47 2.60061 10.9037 2.49999 10.3333 2.49999V3.83332ZM11.5363 4.04746C11.9159 4.18836 12.2564 4.39328 12.54 4.64741L13.4298 3.65444C13.017 3.28446 12.5307 2.99432 12.0003 2.79746L11.5363 4.04746ZM12.54 4.64741C12.8234 4.9014 13.0439 5.19894 13.1927 5.52086L14.4029 4.96143C14.1748 4.46792 13.8428 4.02454 13.4298 3.65444L12.54 4.64741ZM13.1927 5.52086C13.3413 5.8425 13.4166 6.1842 13.4166 6.52715H14.7499C14.7499 5.98749 14.6312 5.45522 14.4029 4.96143L13.1927 5.52086ZM4.49992 7.19382H16.1666V5.86049H4.49992V7.19382Z" fill="#363853"/>
<path d="M8.6665 10.6667V14M11.9998 10.6667V14" stroke="#363853" stroke-width="1.33333" stroke-linecap="round"/>
</svg>
