<svg width="26" height="26" viewBox="0 0 26 26" fill="none" xmlns="http://www.w3.org/2000/svg">
<path d="M9.9666 7.58331L9.74863 8.10228C9.39674 8.94011 9.3083 9.86522 9.49505 10.7545C9.78002 12.1115 10.8603 13.1596 12.2253 13.4033L12.3455 13.4248C12.7784 13.5021 13.2215 13.5021 13.6544 13.4248L13.7746 13.4033C15.1395 13.1596 16.2198 12.1115 16.5048 10.7545C16.6916 9.86522 16.6031 8.94011 16.2512 8.10228L16.0333 7.58331" stroke="#363853" stroke-width="1.625" stroke-linecap="round"/>
<path d="M21.906 16.4049C21.2883 19.1212 19.1769 21.2554 16.4693 21.9106C14.1938 22.4612 11.8065 22.4612 9.53104 21.9106C6.82348 21.2554 4.71205 19.1212 4.09437 16.4049C3.54247 13.9779 3.6767 11.4452 4.48202 9.09008L4.60166 8.74019C5.48778 6.14884 7.7014 4.23597 10.3938 3.73497L11.1312 3.59777C12.3666 3.36788 13.6338 3.36788 14.8692 3.59777L15.6065 3.73496C18.299 4.23597 20.5126 6.14885 21.3987 8.74021L21.5184 9.09008C22.3237 11.4452 22.4579 13.9779 21.906 16.4049Z" stroke="#363853" stroke-width="1.625"/>
</svg>
